<?xml version="1.0" encoding="utf-8"?>
<!-- Generator: Adobe Illustrator 19.0.0, SVG Export Plug-In . SVG Version: 6.00 Build 0)  -->
<svg xmlns="http://www.w3.org/2000/svg" xmlns:xlink="http://www.w3.org/1999/xlink" version="1.1" id="Layer_1" x="0px" y="0px" viewBox="0 2 98 98" style="enable-background:new 0 2 98 98;" xml:space="preserve" width="512" height="512">
<style type="text/css">
	.st0{fill:url(#SVGID_1_);}
	.st1{fill:url(#SVGID_2_);}
	.st2{fill:url(#SVGID_3_);}
	.st3{fill:url(#SVGID_4_);}
</style>
<g>
	
		<linearGradient id="SVGID_1_" gradientUnits="userSpaceOnUse" x1="76" y1="93.5" x2="76" y2="4.1101" gradientTransform="matrix(1 0 0 -1 0 104)">
		<stop offset="0" style="stop-color:#00EFD1"/>
		<stop offset="1" style="stop-color:#00ACEA"/>
	</linearGradient>
	<path class="st0" d="M91.9,12.5C91.9,12.4,91.9,12.4,91.9,12.5c-0.1-0.2-0.2-0.4-0.3-0.5c-0.1-0.2-0.2-0.3-0.4-0.5   c-0.1-0.1-0.3-0.3-0.5-0.4c0-0.1-0.2-0.1-0.3-0.2c-0.1,0-0.1-0.1-0.2-0.1c-0.1-0.1-0.3-0.1-0.4-0.1s-0.1,0-0.2,0   c-0.2,0-0.4-0.1-0.6-0.1l0,0l-26.1,0.2c-1.7,0-3,1.4-3,3s1.4,3,3,3l18.9-0.1l-21,21c-1.2,1.2-1.2,3.1,0,4.2   c0.6,0.6,1.4,0.9,2.1,0.9s1.5-0.3,2.1-0.9l21-21l-0.1,18.9c0,1.7,1.3,3,3,3l0,0c1.6,0,3-1.3,3-3l0.2-26.2l0,0   C92.1,13.2,92,12.8,91.9,12.5z"/>
	
		<linearGradient id="SVGID_2_" gradientUnits="userSpaceOnUse" x1="76.05" y1="93.5" x2="76.05" y2="4.1101" gradientTransform="matrix(1 0 0 -1 0 104)">
		<stop offset="0" style="stop-color:#00EFD1"/>
		<stop offset="1" style="stop-color:#00ACEA"/>
	</linearGradient>
	<path class="st1" d="M91.9,67.6c0-1.6-1.4-3-3-3l0,0c-1.7,0-3,1.4-3,3L86,86.5l-21-21c-1.2-1.2-3.1-1.2-4.2,0   c-1.2,1.2-1.2,3.1,0,4.2l21,21l-18.9-0.1c-1.7,0-3,1.3-3,3s1.3,3,3,3l26.2,0.2l0,0c0.2,0,0.4,0,0.6-0.1c0.1,0,0.1,0,0.2-0.1   c0.1,0,0.3-0.1,0.4-0.1s0.1-0.1,0.2-0.1c0.1-0.1,0.2-0.1,0.3-0.2c0.2-0.1,0.3-0.2,0.5-0.4c0.1-0.1,0.3-0.3,0.4-0.5   c0.3-0.5,0.5-1.1,0.5-1.7l0,0L91.9,67.6z"/>
	
		<linearGradient id="SVGID_3_" gradientUnits="userSpaceOnUse" x1="22.7" y1="93.5" x2="22.7" y2="4.1101" gradientTransform="matrix(1 0 0 -1 0 104)">
		<stop offset="0" style="stop-color:#00EFD1"/>
		<stop offset="1" style="stop-color:#00ACEA"/>
	</linearGradient>
	<path class="st2" d="M35.7,15.4c1.6,0,3-1.3,3-3s-1.3-3-3-3L9.5,9.2l0,0c-0.2,0-0.4,0-0.6,0.1c-0.1,0-0.1,0-0.2,0   c-0.1,0-0.3,0.1-0.4,0.1c-0.1,0-0.1,0.1-0.2,0.1c0,0.1-0.2,0.1-0.3,0.2c-0.1,0.1-0.3,0.2-0.4,0.4c-0.2,0.1-0.3,0.3-0.4,0.4   c-0.1,0.2-0.2,0.4-0.2,0.5c0,0,0,0,0,0.1c-0.2,0.4-0.2,0.8-0.2,1.1l0,0l0.2,26.2c0,1.6,1.4,3,3,3l0,0c1.7,0,3-1.4,3-3l-0.1-18.9   l21,21c0.6,0.6,1.4,0.9,2.1,0.9s1.5-0.3,2.1-0.9c1.2-1.2,1.2-3.1,0-4.2l-21-21L35.7,15.4L35.7,15.4z"/>
	
		<linearGradient id="SVGID_4_" gradientUnits="userSpaceOnUse" x1="22.05" y1="93.5" x2="22.05" y2="4.1101" gradientTransform="matrix(1 0 0 -1 0 104)">
		<stop offset="0" style="stop-color:#00EFD1"/>
		<stop offset="1" style="stop-color:#00ACEA"/>
	</linearGradient>
	<path class="st3" d="M37.2,65.5c-1.2-1.2-3.1-1.2-4.2,0l-21,21l0.1-18.9c0-1.7-1.3-3-3-3l0,0c-1.6,0-3,1.3-3,3L5.9,93.8l0,0   c0,0.6,0.2,1.2,0.5,1.7c0.1,0.2,0.2,0.3,0.4,0.5c0.1,0.1,0.3,0.3,0.5,0.4c0.1,0.1,0.2,0.1,0.3,0.2c0.1,0,0.1,0.1,0.2,0.1   c0.1,0.1,0.3,0.1,0.4,0.1c0.1,0,0.1,0,0.2,0.1C8.6,96.9,8.8,97,9,97l0,0l26.2-0.2c1.7,0,3-1.4,3-3s-1.4-3-3-3l0,0l-18.9,0.1l21-21   C38.4,68.5,38.4,66.6,37.2,65.5z"/>
</g>
</svg>
