<svg id="Capa_1" enable-background="new 0 0 497 497" height="512" viewBox="0 0 497 497" width="512" xmlns="http://www.w3.org/2000/svg"><g><path d="m383.5 0h-30v497h30c16.57 0 30-13.43 30-30v-437c0-16.57-13.43-30-30-30z" fill="#404242"/><path d="m353.5 0h-240c-16.57 0-30 13.43-30 30v437c0 16.57 13.43 30 30 30h240c16.57 0 30-13.43 30-30v-60l-90-188.5 90-188.5c0-16.57-13.43-30-30-30z" fill="#565959"/><path d="m278.5 437h-30v30h30c8.284 0 15-6.716 15-15s-6.716-15-15-15z" fill="#8f8f8b"/><path d="m263.5 452c0-8.284-6.716-15-15-15h-30c-8.284 0-15 6.716-15 15s6.716 15 15 15h30c8.284 0 15-6.716 15-15z" fill="#adaca7"/><path d="m248.5 218.5 105 188.5h30v-377h-30z" fill="#4b88d5"/><path d="m290.926 30-21.213 21.213c-5.452 5.426-12.947 8.787-21.213 8.787s-15.761-3.361-21.193-8.787c-.02 0-21.233-21.213-21.233-21.213h-92.574v377h240v-377z" fill="#69a7ff"/><circle cx="248.5" cy="30" fill="#404242" r="6"/></g></svg>