<?xml version="1.0" encoding="iso-8859-1"?>
<!-- Generator: Adobe Illustrator 19.0.0, SVG Export Plug-In . SVG Version: 6.00 Build 0)  -->
<svg version="1.1" id="Capa_1" xmlns="http://www.w3.org/2000/svg" xmlns:xlink="http://www.w3.org/1999/xlink" x="0px" y="0px"
	 viewBox="0 0 512 512" style="enable-background:new 0 0 512 512;" xml:space="preserve">
<g>
	<g>
		<g>
			<path d="M198.718,293.281H20c-11.046,0-20,8.954-20,20V492c0,11.046,8.954,20,20,20h178.718c11.046,0,20-8.954,20-20V313.281
				C218.718,302.235,209.764,293.281,198.718,293.281z M178.718,472H40V333.281h138.718V472z"/>
			<path d="M304.511,299.139c-7.81-7.811-20.473-7.81-28.284,0c-7.811,7.81-7.811,20.474,0,28.284l171.844,171.845
				c7.81,7.809,20.472,7.811,28.284,0c7.811-7.81,7.811-20.474,0-28.285L304.511,299.139z"/>
			<path d="M509.889,212.687L409.073,11.056C405.685,4.28,398.76,0,391.185,0s-14.5,4.28-17.889,11.056L272.48,212.687
				c-3.1,6.2-2.769,13.563,0.875,19.459c3.645,5.896,10.082,9.485,17.013,9.485H492c6.932,0,13.369-3.589,17.013-9.485
				C512.657,226.249,512.988,218.887,509.889,212.687z M322.73,201.631l68.455-136.909l68.455,136.909H322.73z"/>
			<path d="M120.815,0C54.198,0,0,54.197,0,120.815S54.198,241.63,120.815,241.63S241.63,187.433,241.63,120.815
				S187.433,0,120.815,0z M120.815,201.631C76.253,201.631,40,165.377,40,120.815S76.253,40,120.815,40s80.815,36.254,80.815,80.815
				C201.63,165.376,165.377,201.631,120.815,201.631z"/>
		</g>
	</g>
</g>
<g>
</g>
<g>
</g>
<g>
</g>
<g>
</g>
<g>
</g>
<g>
</g>
<g>
</g>
<g>
</g>
<g>
</g>
<g>
</g>
<g>
</g>
<g>
</g>
<g>
</g>
<g>
</g>
<g>
</g>
</svg>
