<svg height="512" viewBox="0 0 128 128" width="512" xmlns="http://www.w3.org/2000/svg"><g><g><path d="m92.171 117.149-25.491-50.669-2.68-5.32-2.68 5.32-25.491 50.669a3 3 0 0 0 2.681 4.351 3 3 0 0 0 2.681-1.653l22.809-45.337 22.809 45.337a3 3 0 0 0 2.681 1.653 3 3 0 0 0 2.681-4.351z" fill="#aa7e54"/><path d="m61 6.5h6v20.5h-6z" fill="#e2a76f"/><path d="m11.625 14h104.75v71.5h-104.75z" fill="#eaeaf0"/><path d="m6.5 81h115v9h-115z" fill="#e2a76f"/></g><g fill="#20334d"><path d="m116.38 25.167a1.75 1.75 0 0 0 -1.75 1.75v3.416a1.75 1.75 0 0 0 3.5 0v-3.416a1.75 1.75 0 0 0 -1.75-1.75z"/><path d="m108.625 45.083v12.417a1.75 1.75 0 1 0 3.5 0v-12.417a1.75 1.75 0 0 0 -3.5 0z"/><path d="m121.5 79.25h-3.37v-42.75a1.75 1.75 0 0 0 -3.5 0v42.75h-83.286a1.75 1.75 0 1 0 0 3.5h88.406v5.5h-111.5v-5.5h14.5a1.75 1.75 0 0 0 0-3.5h-9.38v-63.5h101.26v5.25a1.75 1.75 0 0 0 3.5 0v-7a1.75 1.75 0 0 0 -1.75-1.75h-47.63v-5.75a1.75 1.75 0 0 0 -1.75-1.75h-6a1.75 1.75 0 0 0 -1.75 1.75v5.75h-47.63a1.75 1.75 0 0 0 -1.75 1.75v65.25h-3.37a1.75 1.75 0 0 0 -1.75 1.75v9a1.75 1.75 0 0 0 1.75 1.75h40.151l-2.359 4.688a1.75 1.75 0 1 0 3.126 1.573l3.151-6.261h2.8l-13.742 27.312a1.25 1.25 0 1 1 -2.233-1.125l6.828-13.572a1.75 1.75 0 0 0 -3.127-1.572l-6.829 13.573a4.75 4.75 0 0 0 8.487 4.27l14.535-28.886h13.424l14.536 28.888a4.75 4.75 0 1 0 8.485-4.274l-12.384-24.614h40.151a1.75 1.75 0 0 0 1.75-1.75v-9a1.75 1.75 0 0 0 -1.75-1.75zm-58.75-71h2.5v4h-2.5zm27.858 109.689a1.249 1.249 0 0 1 -1.118 1.811 1.26 1.26 0 0 1 -1.116-.687l-13.744-27.313h2.8z"/></g></g></svg>