<?xml version="1.0" encoding="iso-8859-1"?>
<!-- Generator: Adobe Illustrator 19.0.0, SVG Export Plug-In . SVG Version: 6.00 Build 0)  -->
<svg version="1.1" id="Capa_1" xmlns="http://www.w3.org/2000/svg" xmlns:xlink="http://www.w3.org/1999/xlink" x="0px" y="0px"
	 viewBox="0 0 512 512" style="enable-background:new 0 0 512 512;" xml:space="preserve">
<g>
	<g>
		<path d="M482,117H31c-16.568,0-30,13.432-30,30s13.432,30,30,30h451c16.568,0,30-13.432,30-30S498.568,117,482,117z"/>
	</g>
</g>
<g>
	<g>
		<path d="M492,0H20C8.954,0,0,8.954,0,20s8.954,20,20,20h472c11.046,0,20-8.954,20-20S503.046,0,492,0z"/>
	</g>
</g>
<g>
	<g>
		<path d="M462,412H51c-27.614,0-50,22.386-50,50s22.386,50,50,50h411c27.614,0,50-22.386,50-50S489.614,412,462,412z"/>
	</g>
</g>
<g>
	<g>
		<path d="M472,254H41c-22.091,0-40,17.909-40,40s17.909,40,40,40h431c22.091,0,40-17.909,40-40S494.091,254,472,254z"/>
	</g>
</g>
<g>
</g>
<g>
</g>
<g>
</g>
<g>
</g>
<g>
</g>
<g>
</g>
<g>
</g>
<g>
</g>
<g>
</g>
<g>
</g>
<g>
</g>
<g>
</g>
<g>
</g>
<g>
</g>
<g>
</g>
</svg>
